<?xml version="1.0" standalone="no"?>
<!DOCTYPE svg PUBLIC "-//W3C//DTD SVG 20010904//EN"
 "http://www.w3.org/TR/2001/REC-SVG-20010904/DTD/svg10.dtd">
<svg version="1.0" xmlns="http://www.w3.org/2000/svg"
 width="446.000000pt" height="396.000000pt" viewBox="0 0 446.000000 396.000000"
 preserveAspectRatio="xMidYMid meet">

<g transform="translate(0.000000,396.000000) scale(0.100000,-0.100000)"
fill="#000000" stroke="none">
<path d="M3036 1663 c-38 -46 -46 -62 -41 -82 13 -52 56 -64 70 -20 8 24 35
25 35 2 1 -17 1 -17 11 0 12 20 29 23 29 4 0 -20 41 -54 72 -62 22 -6 33 -1
58 23 16 17 30 39 30 49 0 30 -27 61 -65 73 -19 6 -40 20 -45 31 -6 11 -21 19
-35 19 -13 0 -27 5 -30 10 -14 23 -45 7 -89 -47z"/>
<path d="M3245 1246 c-26 -37 -45 -69 -42 -72 3 -3 21 0 41 7 44 16 55 6 35
-29 -10 -18 -28 -30 -54 -37 -22 -5 -45 -13 -51 -17 -17 -11 -133 -28 -193
-28 -45 0 -60 5 -82 26 l-26 25 -59 -17 c-32 -9 -90 -22 -128 -29 -70 -12 -71
-12 -69 -41 3 -36 31 -73 73 -99 59 -34 217 -20 345 30 11 4 -8 -18 -42 -49
-35 -32 -63 -63 -63 -69 1 -7 11 -25 25 -41 l24 -30 43 29 c24 15 62 43 86 62
24 20 45 34 47 32 2 -2 29 -62 60 -134 31 -71 58 -131 59 -133 4 -4 86 29 86
35 0 14 -71 374 -80 403 -5 19 -10 36 -10 37 0 2 13 3 29 3 25 0 38 12 96 91
36 50 63 94 60 98 -4 3 -42 8 -85 9 l-78 4 -47 -66z"/>
</g>
</svg>
